<?xml version="1.0" encoding="utf-8"?>
<!-- Generator: Adobe Illustrator 18.1.1, SVG Export Plug-In . SVG Version: 6.00 Build 0)  -->
<!DOCTYPE svg PUBLIC "-//W3C//DTD SVG 1.1//EN" "http://www.w3.org/Graphics/SVG/1.1/DTD/svg11.dtd">
<svg version="1.1" id="Layer_1" xmlns="http://www.w3.org/2000/svg" xmlns:xlink="http://www.w3.org/1999/xlink" x="0px" y="0px"
    width="80px" height="80px"
	 viewBox="0 0 80 80" style="enable-background:new 0 0 80 80;" xml:space="preserve">
<style type="text/css">
	.st0{fill:#8ad2e6;}
</style>
<g>
	<path class="st0" d="M40,79.2C18.4,79.2,0.8,61.6,0.8,40S18.4,0.8,40,0.8S79.2,18.4,79.2,40S61.6,79.2,40,79.2z M40,3.8
		C20.1,3.8,3.8,20.1,3.8,40S20.1,76.2,40,76.2S76.2,59.9,76.2,40S59.9,3.8,40,3.8z"/>
</g>
<g>
	<path class="st0" d="M36.3,57.2c-0.4,0-0.8-0.2-1.1-0.4L20.1,41.6c-0.6-0.6-0.6-1.5,0-2.1c0.6-0.6,1.5-0.6,2.1,0l13.9,14l21.5-30
		c0.5-0.7,1.4-0.8,2.1-0.3c0.7,0.5,0.8,1.4,0.3,2.1L37.5,56.6c-0.3,0.4-0.7,0.6-1.1,0.6C36.4,57.2,36.3,57.2,36.3,57.2z"/>
</g>
</svg>
