<?xml version="1.0" encoding="utf-8"?>
<!-- Generator: Adobe Illustrator 18.0.0, SVG Export Plug-In . SVG Version: 6.00 Build 0)  -->
<!DOCTYPE svg PUBLIC "-//W3C//DTD SVG 1.1//EN" "http://www.w3.org/Graphics/SVG/1.1/DTD/svg11.dtd">
<svg version="1.1" id="Layer_1" xmlns="http://www.w3.org/2000/svg" xmlns:xlink="http://www.w3.org/1999/xlink" x="0px" y="0px"
	 width="80px" height="80px" viewBox="0 0 80 80" style="enable-background:new 0 0 80 80;" xml:space="preserve">
<style type="text/css">
	.st0{fill:#ffc843;}
</style>
<g>
	<path class="st0" d="M40,80C18,80,0,62,0,40S18,0,40,0s40,18,40,40S62,80,40,80z M40,3.1C19.7,3.1,3.1,19.7,3.1,40
		S19.7,76.9,40,76.9S76.9,60.3,76.9,40S60.3,3.1,40,3.1z"/>
</g>
<g>
	<g>
		<path class="st0" d="M39.9,63.6H25.6c-2.1,0-3.9-1.7-3.9-3.9V19.3c0-2.1,1.7-3.9,3.9-3.9h27.1c2.1,0,3.9,1.7,3.9,3.9v23.3
			c0,0.8-0.7,1.5-1.5,1.5c-0.8,0-1.5-0.7-1.5-1.5V19.3c0-0.4-0.4-0.8-0.8-0.8H25.6c-0.4,0-0.8,0.4-0.8,0.8v40.4
			c0,0.4,0.4,0.8,0.8,0.8h14.3c0.8,0,1.5,0.7,1.5,1.5S40.8,63.6,39.9,63.6z"/>
	</g>
	<g>
		<path class="st0" d="M49.3,25.3H29.1c-0.8,0-1.5-0.7-1.5-1.5s0.7-1.5,1.5-1.5h20.3c0.8,0,1.5,0.7,1.5,1.5
			C50.9,24.6,50.2,25.3,49.3,25.3z"/>
	</g>
	<g>
		<path class="st0" d="M49.3,32.1H29.1c-0.8,0-1.5-0.7-1.5-1.5s0.7-1.5,1.5-1.5h20.3c0.8,0,1.5,0.7,1.5,1.5S50.2,32.1,49.3,32.1z"/>
	</g>
	<g>
		<path class="st0" d="M49.3,39.1H29.1c-0.8,0-1.5-0.7-1.5-1.5s0.7-1.5,1.5-1.5h20.3c0.8,0,1.5,0.7,1.5,1.5
			C50.9,38.4,50.2,39.1,49.3,39.1z"/>
	</g>
	<g>
		<path class="st0" d="M38,45.9h-8.9c-0.8,0-1.5-0.7-1.5-1.5s0.7-1.5,1.5-1.5H38c0.8,0,1.5,0.7,1.5,1.5S38.8,45.9,38,45.9z"/>
	</g>
	<g>
		<polygon class="st0" points="50.4,56.2 52,56.2 51.2,53.6 		"/>
	</g>
	<g>
		<path class="st0" d="M51.2,48c-4.2,0-7.6,3.4-7.6,7.6c0,4.2,3.4,7.6,7.6,7.6s7.6-3.4,7.6-7.6C58.8,51.3,55.4,48,51.2,48z
			 M52.9,58.8l-0.4-1.4H50l-0.4,1.3h-1.4l2.3-6.6H52l2.3,6.6L52.9,58.8L52.9,58.8z"/>
	</g>
</g>
</svg>
