<?xml version="1.0" encoding="utf-8"?>
<!-- Generator: Adobe Illustrator 18.1.1, SVG Export Plug-In . SVG Version: 6.00 Build 0)  -->
<!DOCTYPE svg PUBLIC "-//W3C//DTD SVG 1.1//EN" "http://www.w3.org/Graphics/SVG/1.1/DTD/svg11.dtd">
<svg version="1.1" id="Layer_1" xmlns="http://www.w3.org/2000/svg" xmlns:xlink="http://www.w3.org/1999/xlink" x="0px" y="0px"
	 width="80px" height="80px" viewBox="0 0 80 80" style="enable-background:new 0 0 80 80;" xml:space="preserve">
<style type="text/css">
	.st0{fill:#009bde;}
</style>
<g>
	<g>
		<path class="st0" d="M40,79.2C18.4,79.2,0.8,61.6,0.8,40S18.4,0.8,40,0.8S79.2,18.4,79.2,40S61.6,79.2,40,79.2z M40,3.8
			C20.1,3.8,3.8,20.1,3.8,40S20.1,76.2,40,76.2S76.2,59.9,76.2,40S59.9,3.8,40,3.8z"/>
	</g>
	<g>
		<g>
			<path class="st0" d="M58,57.9C58,57.9,58,57.9,58,57.9H20.3c-0.8,0-1.4-0.6-1.5-1.3l-3.3-24.4c-0.1-0.8,0.1-1.6,0.7-2.2
				c0.5-0.6,1.3-0.9,2.1-0.9h1l1.9-5.9c0.2-0.6,0.8-1,1.4-1h13.4c0.6,0,1.2,0.4,1.4,1l2.3,6h13.2c1.9,0,3.6,1.5,3.8,3.4L59.4,56
				c0,0.1,0.1,0.3,0.1,0.4C59.5,57.2,58.8,57.9,58,57.9z M21.6,54.9h34.7l-2.6-22.1c0-0.4-0.4-0.7-0.8-0.7H38.6
				c-0.6,0-1.2-0.4-1.4-1l-2.3-6H23.6L21.7,31c-0.2,0.6-0.8,1-1.4,1h-1.8L21.6,54.9z"/>
		</g>
		<g>
			<path class="st0" d="M58.5,57.9c-0.1,0-0.2,0-0.2,0c-0.8-0.1-1.4-0.9-1.2-1.7l4.5-28.5c0.1-0.3-0.1-0.5-0.2-0.6
				c-0.1-0.1-0.3-0.3-0.6-0.3H42.8c-0.8,0-1.5-0.7-1.5-1.5s0.7-1.5,1.5-1.5h17.9c1.1,0,2.2,0.5,2.9,1.3c0.7,0.8,1,2,0.9,3.1L60,56.6
				C59.8,57.3,59.2,57.9,58.5,57.9z"/>
		</g>
	</g>
</g>
</svg>
