<?xml version="1.0" encoding="utf-8"?>
<!-- Generator: Adobe Illustrator 18.1.1, SVG Export Plug-In . SVG Version: 6.00 Build 0)  -->
<!DOCTYPE svg PUBLIC "-//W3C//DTD SVG 1.1//EN" "http://www.w3.org/Graphics/SVG/1.1/DTD/svg11.dtd">
<svg version="1.1" id="Layer_1" xmlns="http://www.w3.org/2000/svg" xmlns:xlink="http://www.w3.org/1999/xlink" x="0px" y="0px"
	width="80px" height="80px"
	 viewBox="0 0 80 80" style="enable-background:new 0 0 80 80;" xml:space="preserve">
<style type="text/css">
	.st0{fill: #ff9e16;}
</style>
<g>
	<path class="st0" d="M40,79.2C18.4,79.2,0.8,61.6,0.8,40S18.4,0.8,40,0.8S79.2,18.4,79.2,40S61.6,79.2,40,79.2z M40,3.8
		C20.1,3.8,3.8,20.1,3.8,40S20.1,76.2,40,76.2S76.2,59.9,76.2,40S59.9,3.8,40,3.8z"/>
</g>
<g>
	<g>
		<path class="st0" d="M50.7,24.6v-4.8l12.4,12.4L50.7,44.6v-5c0,0-6.2-1.2-12.5,2.7c-3.5,2.2-5.8,5-7.3,7.2c0,0,0.5-7.7,4.9-14.8
			C41.4,26,50.7,24.6,50.7,24.6z"/>
	</g>
	<g>
		<path class="st0" d="M53,57.7H24.9c-0.8,0-1.5-0.7-1.5-1.5V26.5c0-0.8,0.7-1.5,1.5-1.5h11.3c0.8,0,1.5,0.7,1.5,1.5S37,28,36.2,28
			h-9.8v26.6h25.1v-5.3c0-0.8,0.7-1.5,1.5-1.5s1.5,0.7,1.5,1.5v6.8C54.5,57,53.8,57.7,53,57.7z"/>
	</g>
</g>
</svg>
